<svg xmlns="http://www.w3.org/2000/svg" version="1.0" width="600.000000" height="600.000000" preserveAspectRatio="xMidYMid meet" style=""><rect id="backgroundrect" width="100%" height="100%" x="0" y="0" fill="none" stroke="none"/>
<metadata>
Created by potrace 1.10, written by Peter Selinger 2001-2011
</metadata>

<g class="currentLayer" style=""><title>Layer 1</title><g transform="translate(0,600) scale(0.10000000149011612,-0.10000000149011612) " fill="#007bff" stroke="none" id="svg_1" class="selected" fill-opacity="1">
<path d="M2625 5661 c-84 -7 -170 -20 -275 -43 -148 -31 -121 -24 -300 -82 -468 -153 -904 -465 -1212 -867 -230 -300 -396 -658 -471 -1019 -9 -41 -21 -97 -27 -125 -23 -112 -34 -418 -22 -603 13 -180 18 -218 53 -377 34 -154 66 -255 134 -420 200 -487 580 -930 1037 -1210 78 -48 333 -175 350 -175 8 0 18 -4 24 -9 27 -26 346 -118 522 -150 242 -45 638 -45 863 -1 157 31 217 46 349 88 166 52 191 62 355 143 123 61 130 65 203 112 24 15 45 27 47 27 7 0 136 91 185 129 24 20 56 45 70 56 33 27 310 303 335 335 11 14 36 46 56 70 32 41 99 136 124 178 17 27 59 96 72 117 19 31 138 275 155 320 39 100 48 126 76 220 27 92 43 161 72 305 17 86 34 304 34 430 0 230 -37 501 -94 695 -21 68 -73 222 -87 255 -8 19 -20 49 -27 65 -28 67 -83 174 -123 243 -24 41 -43 75 -43 77 0 2 -14 26 -32 52 -256 385 -612 705 -998 898 -255 128 -492 204 -780 250 -109 18 -488 27 -625 16z m-228 -1413 c13 -12 23 -25 23 -30 0 -7 17 -45 111 -246 22 -46 39 -85 39 -87 0 -3 15 -37 34 -77 18 -40 47 -102 64 -138 16 -36 44 -96 62 -135 18 -38 43 -95 57 -125 13 -30 33 -73 43 -95 62 -137 96 -210 168 -365 16 -36 44 -96 62 -135 18 -38 43 -95 57 -125 13 -30 42 -93 64 -139 24 -49 36 -88 31 -93 -5 -5 -80 -7 -168 -6 l-159 3 -25 50 c-14 28 -37 78 -51 110 -15 33 -37 83 -49 110 -38 86 -71 159 -90 200 -10 22 -30 67 -45 100 -14 33 -40 88 -56 122 -16 35 -29 65 -29 68 0 3 -20 48 -45 101 -25 52 -45 97 -45 99 0 3 -19 44 -41 92 -23 49 -45 99 -49 113 -7 28 -28 33 -41 10 -12 -22 -79 -170 -79 -175 0 -2 -20 -47 -45 -99 -25 -53 -45 -98 -45 -100 0 -3 -20 -48 -45 -100 -25 -53 -45 -98 -45 -100 0 -3 -20 -48 -45 -100 -25 -53 -45 -98 -45 -100 0 -3 -17 -42 -39 -88 -21 -46 -47 -103 -58 -128 -11 -25 -35 -78 -53 -118 l-34 -72 -163 0 c-116 0 -163 3 -163 12 0 6 11 34 24 62 13 28 38 83 56 121 18 39 46 99 62 135 38 81 83 179 113 245 13 28 47 102 75 165 29 63 66 144 82 180 47 101 70 151 158 345 45 99 96 209 112 245 17 36 44 94 60 130 87 190 78 178 137 179 23 1 43 -7 58 -21z m505 5 c8 -10 25 -40 37 -68 13 -27 36 -78 52 -112 16 -35 29 -65 29 -68 0 -3 20 -48 45 -101 25 -52 45 -97 45 -100 0 -2 20 -47 45 -100 25 -52 45 -97 45 -100 0 -4 41 -94 91 -201 16 -35 29 -65 29 -68 0 -2 15 -37 34 -77 19 -40 45 -98 59 -129 14 -31 29 -59 34 -62 5 -3 18 13 28 36 10 23 31 71 47 107 17 36 36 79 43 95 8 17 30 65 49 108 20 42 36 79 36 82 0 2 18 43 41 92 22 48 49 106 59 128 10 22 32 70 49 108 17 37 31 69 31 71 0 3 20 48 45 100 25 53 45 98 45 101 0 13 73 155 84 164 9 8 63 11 162 9 126 -3 149 -5 152 -19 1 -8 -20 -65 -48 -125 -29 -60 -62 -131 -75 -159 -12 -27 -39 -85 -59 -128 -20 -42 -36 -79 -36 -82 0 -2 -17 -41 -39 -87 -48 -102 -126 -272 -181 -393 -10 -22 -39 -84 -64 -138 -25 -54 -46 -100 -46 -102 0 -2 -17 -41 -39 -87 -21 -46 -53 -114 -71 -153 -17 -38 -40 -88 -50 -110 -10 -22 -33 -71 -50 -110 -53 -121 -52 -120 -113 -123 l-55 -3 -20 43 c-53 112 -112 240 -112 243 0 2 -18 43 -41 92 -22 48 -51 111 -64 138 -47 103 -88 192 -126 273 -22 46 -39 85 -39 87 0 2 -18 43 -41 92 -22 48 -51 111 -64 138 -12 28 -37 80 -54 118 -17 37 -45 97 -62 135 -34 74 -70 153 -101 222 -12 25 -38 82 -60 128 -22 46 -37 89 -34 97 4 12 34 15 159 15 134 0 156 -2 169 -17z m-447 -2034 c55 -14 112 -69 121 -116 23 -123 -53 -223 -171 -223 -119 0 -194 99 -171 223 8 43 63 98 113 114 49 15 56 15 108 2z m1032 -11 c47 -23 66 -69 71 -177 4 -106 -6 -151 -37 -151 -21 0 -31 18 -31 56 0 13 -6 24 -12 25 -57 4 -115 5 -125 1 -7 -2 -15 -20 -19 -39 -7 -39 -27 -52 -49 -33 -17 14 -21 168 -6 233 21 91 116 129 208 85z m716 10 c88 -26 141 -120 118 -208 -38 -144 -224 -176 -319 -55 -48 61 -41 153 17 212 54 57 112 73 184 51z m-2653 -120 c6 -135 18 -158 79 -158 68 0 81 26 81 164 0 98 1 105 21 111 12 4 25 3 31 -3 6 -6 8 -62 6 -137 l-3 -127 -39 -34 c-33 -29 -47 -34 -89 -34 -61 0 -109 27 -131 74 -12 25 -16 64 -16 143 0 60 3 113 7 117 4 4 16 6 28 4 18 -3 20 -12 25 -120z m596 107 c10 -24 -16 -47 -45 -42 -55 11 -61 -2 -61 -133 0 -132 -4 -150 -31 -150 -32 0 -40 35 -38 156 3 126 -2 137 -51 127 -34 -6 -67 22 -49 43 17 21 267 20 275 -1z m771 3 c4 -7 25 -51 45 -98 20 -47 42 -85 49 -85 7 0 19 11 25 25 7 14 28 57 46 95 32 69 57 90 80 67 7 -7 4 -24 -10 -54 -53 -112 -100 -217 -107 -237 -3 -11 -15 -26 -26 -31 -16 -9 -21 -7 -29 14 -5 14 -22 53 -38 88 -16 35 -44 94 -62 132 -17 37 -29 74 -26 82 7 17 42 18 53 2z m823 -128 l5 -135 70 -3 c73 -3 90 -14 74 -44 -9 -17 -21 -18 -107 -16 l-97 3 -3 155 c-1 85 0 160 3 168 3 7 15 12 27 10 22 -3 23 -7 28 -138z m908 106 c23 -22 27 -35 27 -80 0 -36 -5 -60 -17 -72 -29 -33 -26 -56 9 -78 42 -27 43 -69 2 -74 -19 -2 -36 8 -72 48 -61 66 -90 67 -95 2 -3 -46 -22 -63 -47 -42 -20 17 -22 315 -2 324 6 3 47 4 90 2 69 -2 81 -6 105 -30z m-3357 -43 c17 -38 49 -106 71 -152 21 -46 37 -90 34 -98 -9 -23 -45 -14 -60 16 -19 35 -33 41 -101 41 -48 0 -55 -3 -79 -35 -28 -36 -53 -45 -62 -21 -3 8 9 45 26 82 18 38 48 102 66 142 19 40 34 77 34 82 0 6 9 10 20 10 14 0 28 -17 51 -67z" id="svg_2" fill="#007bff"/>
<path d="M2355 2158 c-47 -27 -69 -85 -55 -140 14 -50 52 -78 105 -78 54 0 91 28 105 79 10 39 8 56 -13 99 -21 45 -97 66 -142 40z" id="svg_3" fill="#007bff"/>
<path d="M3373 2155 c-35 -25 -54 -131 -25 -136 23 -5 110 -6 125 -2 29 7 24 97 -8 128 -28 29 -61 32 -92 10z" id="svg_4" fill="#007bff"/>
<path d="M4076 2136 c-31 -29 -36 -40 -36 -79 0 -37 6 -53 31 -82 27 -31 37 -35 78 -35 40 0 52 5 77 31 25 26 29 38 29 86 0 51 -3 58 -35 84 -49 41 -97 40 -144 -5z" id="svg_5" fill="#007bff"/>
<path d="M4518 2159 c-27 -15 -25 -104 1 -119 40 -21 91 17 91 67 0 29 -5 36 -35 49 -40 16 -35 16 -57 3z" id="svg_6" fill="#007bff"/>
<path d="M1224 2073 c-3 -10 -10 -26 -15 -36 -13 -25 -3 -37 32 -37 37 0 45 19 24 59 -17 35 -33 40 -41 14z" id="svg_7" fill="#007bff"/>
</g></g></svg>